<svg width="48" height="48" fill="none" xmlns="http://www.w3.org/2000/svg"><rect width="48" height="48" rx="4" fill="#fff"/><path d="M28.636 14.837l-2.314-.004c-2.6 0-4.281 1.771-4.281 4.512v2.08h-2.327a.369.369 0 00-.364.374v3.015c0 .206.163.373.364.373h2.327v7.606a.37.37 0 00.364.374h3.036a.369.369 0 00.364-.374v-7.606h2.72a.369.369 0 00.365-.373v-3.015a.38.38 0 00-.106-.264.36.36 0 00-.257-.11h-2.722v-1.763c0-.848.197-1.278 1.271-1.278h1.56a.37.37 0 00.363-.374v-2.8a.369.369 0 00-.363-.373z" fill="#086CF9"/></svg>