<svg width="48" height="48" fill="none" xmlns="http://www.w3.org/2000/svg"><rect width="48" height="48" rx="4" fill="#fff"/><path fill-rule="evenodd" clip-rule="evenodd" d="M15.667 24c0-2.641 0-3.962.444-4.999a5.5 5.5 0 012.89-2.89c1.038-.445 2.358-.445 5-.445 2.64 0 3.96 0 4.997.445A5.5 5.5 0 0131.89 19c.444 1.037.444 2.358.444 4.999 0 2.64 0 3.961-.444 4.998A5.5 5.5 0 0129 31.89c-1.037.444-2.358.444-4.999.444-2.64 0-3.961 0-4.998-.444A5.5 5.5 0 0116.11 29c-.444-1.038-.444-2.358-.444-5zM24 19.588a4.412 4.412 0 100 8.824 4.412 4.412 0 000-8.824zm0 7.17A2.761 2.761 0 0121.243 24 2.76 2.76 0 0124 21.243 2.76 2.76 0 0126.758 24 2.761 2.761 0 0124 26.757zm5.33-7.501a.588.588 0 11-1.175 0 .588.588 0 011.176 0z" fill="#086CF9"/></svg>