<svg width="48" height="48" fill="none" xmlns="http://www.w3.org/2000/svg"><rect width="48" height="48" rx="4" fill="#fff"/><path d="M32.33 32.333h.003V26.22c0-2.99-.643-5.294-4.14-5.294-1.68 0-2.808.923-3.268 1.797h-.049v-1.518h-3.314v11.128h3.451v-5.51c0-1.45.275-2.854 2.072-2.854 1.77 0 1.796 1.656 1.796 2.947v5.417h3.448zM15.942 21.206h3.455v11.127h-3.455V21.206zm1.726-5.539a2.002 2.002 0 00-2.001 2.001c0 1.105.896 2.02 2.001 2.02s2.002-.915 2.002-2.02a2.003 2.003 0 00-2.002-2.001z" fill="#086CF9"/></svg>