<svg width="48" height="48" fill="none" xmlns="http://www.w3.org/2000/svg"><rect width="48" height="48" rx="4" fill="#fff"/><path d="M32.75 18.81a7.42 7.42 0 01-2.061.542 3.483 3.483 0 001.578-1.9 7.435 7.435 0 01-2.282.834 3.655 3.655 0 00-2.62-1.086c-1.982 0-3.59 1.54-3.59 3.437 0 .269.032.531.093.783-2.983-.144-5.628-1.512-7.399-3.592a3.301 3.301 0 00-.485 1.728c0 1.192.634 2.245 1.596 2.86a3.712 3.712 0 01-1.626-.43v.042c0 1.665 1.238 3.054 2.88 3.37a3.767 3.767 0 01-.946.121c-.232 0-.456-.022-.676-.064.457 1.367 1.782 2.36 3.353 2.388a7.408 7.408 0 01-4.459 1.469c-.29 0-.575-.017-.856-.047a10.477 10.477 0 005.503 1.546c6.604 0 10.213-5.238 10.213-9.78l-.012-.445a7.012 7.012 0 001.796-1.776z" fill="#086CF9"/></svg>