<svg width="80" height="80" fill="none" xmlns="http://www.w3.org/2000/svg"><g clip-path="url(#clip0_28_598)" fill="#086CF9"><path d="M24.635 16.034c-.692 0-1.253.56-1.253 1.253a2.759 2.759 0 01-2.756 2.755 2.759 2.759 0 01-2.756-2.756 2.759 2.759 0 012.756-2.755 1.253 1.253 0 000-2.506 5.267 5.267 0 00-5.26 5.261 5.267 5.267 0 005.26 5.261 5.267 5.267 0 005.261-5.26c0-.692-.56-1.253-1.252-1.253zm0 14.697c-.692 0-1.253.56-1.253 1.253a2.759 2.759 0 01-2.756 2.755 2.759 2.759 0 01-2.756-2.755 2.759 2.759 0 012.756-2.756 1.253 1.253 0 000-2.505 5.267 5.267 0 00-5.26 5.26 5.268 5.268 0 005.26 5.262 5.267 5.267 0 005.261-5.261c0-.692-.56-1.253-1.252-1.253zm14.697 2.672h-9.353a1.253 1.253 0 000 2.506h9.353a1.253 1.253 0 000-2.506zm0-5.344h-9.353a1.253 1.253 0 000 2.505h9.353a1.253 1.253 0 000-2.505zM36.66 48.1h-6.681a1.253 1.253 0 000 2.506h6.68a1.253 1.253 0 000-2.505zm2.672-5.344h-9.353a1.253 1.253 0 100 2.505h9.353a1.253 1.253 0 000-2.505zm12.025-24.05H29.979a1.253 1.253 0 100 2.505h21.378a1.253 1.253 0 000-2.505zm-5.345-5.345H29.98a1.253 1.253 0 000 2.506h16.033a1.253 1.253 0 100-2.506zM24.635 45.428c-.692 0-1.253.561-1.253 1.253a2.759 2.759 0 01-2.756 2.756 2.759 2.759 0 01-2.756-2.756 2.759 2.759 0 012.756-2.756 1.253 1.253 0 100-2.505 5.267 5.267 0 00-5.26 5.26 5.267 5.267 0 005.26 5.262 5.267 5.267 0 005.261-5.261c0-.692-.56-1.253-1.252-1.253z"/><path d="M56.701 0H11.273A3.93 3.93 0 007.35 3.925v56.117a3.93 3.93 0 003.925 3.925h22.713a1.253 1.253 0 100-2.506H11.273c-.782 0-1.42-.637-1.42-1.42V3.926c0-.783.638-1.42 1.42-1.42h45.428c.783 0 1.42.637 1.42 1.42v41.42a1.253 1.253 0 002.505 0V3.925A3.93 3.93 0 0056.701 0z"/><path d="M68.528 50.795a4.622 4.622 0 00-3.249.914c-.733-1.231-1.984-2.105-3.432-2.25a4.622 4.622 0 00-3.249.913c-.733-1.23-1.984-2.104-3.431-2.249a4.628 4.628 0 00-2.558.48V32.65c0-1.295-.55-2.537-1.512-3.406a4.614 4.614 0 00-3.55-1.163c-2.312.231-4.123 2.322-4.123 4.76v15.992l-3.682 3.682a7.883 7.883 0 00-2.113 7.427l2.795 11.88A10.565 10.565 0 0050.748 80h11.298c5.848 0 10.605-4.758 10.605-10.606V55.556c0-2.438-1.81-4.529-4.123-4.76zm1.618 18.599c0 4.466-3.634 8.1-8.1 8.1H50.748a8.07 8.07 0 01-7.885-6.245l-2.795-11.88a5.394 5.394 0 011.445-5.082l1.91-1.91V56.7a1.253 1.253 0 002.506 0V32.84c0-1.166.82-2.162 1.868-2.267a2.075 2.075 0 011.62.528c.437.396.688.96.688 1.55v22.045a1.253 1.253 0 002.505 0v-2.004a2.092 2.092 0 012.307-2.077c1.048.105 1.868 1.1 1.868 2.267v3.15a1.253 1.253 0 002.506 0v-2.004a2.092 2.092 0 012.307-2.077c1.047.105 1.868 1.1 1.868 2.267v3.15a1.253 1.253 0 102.505 0v-2.005a2.092 2.092 0 012.308-2.076c1.047.105 1.868 1.1 1.868 2.267v13.839z"/></g><defs><clipPath id="clip0_28_598"><path fill="#fff" d="M0 0h80v80H0z"/></clipPath></defs></svg>