<svg width="72" height="72" fill="none" xmlns="http://www.w3.org/2000/svg"><g clip-path="url(#clip0_28_740)" fill="#086CF9"><path d="M21.465 25.305l4.48 4.48L36 19.882v4.108h4.235V12.705H28.952v4.235h3.998l-6.982 6.878-4.503-4.503L3.449 37.331l2.995 2.994 15.02-15.02zM12.706 72h8.47V46.588h-8.47V72zm12.706 0h8.47V42.354h-8.47v29.648zM72 21.177l-7.94-10.589L72 0H44.47v38.118h-6.352V72h16.941V38.118h-6.353V21.176H72zM8.47 50.823H0V72h8.47V50.823z"/></g><defs><clipPath id="clip0_28_740"><path fill="#fff" d="M0 0h72v72H0z"/></clipPath></defs></svg>