<svg width="20" height="21" fill="none" xmlns="http://www.w3.org/2000/svg"><g clip-path="url(#clip0_28_111)"><path d="M18.395 13.628a11.37 11.37 0 01-3.566-.568c-.558-.19-1.245-.016-1.585.334l-2.249 1.697C8.387 13.7 6.781 12.093 5.407 9.505l1.648-2.19a1.617 1.617 0 00.398-1.638 11.373 11.373 0 01-.57-3.572C6.883 1.22 6.163.5 5.278.5H1.605C.72.5 0 1.22 0 2.105 0 12.248 8.252 20.5 18.395 20.5c.885 0 1.605-.72 1.605-1.605v-3.662c0-.885-.72-1.605-1.605-1.605z" fill="#222"/></g><defs><clipPath id="clip0_28_111"><path fill="#fff" transform="translate(0 .5)" d="M0 0h20v20H0z"/></clipPath></defs></svg>