<svg width="32" height="32" fill="none" xmlns="http://www.w3.org/2000/svg"><path d="M23.977 14.164a.469.469 0 00-.378-.319l-4.96-.72L16.42 8.63a.469.469 0 00-.84 0l-2.219 4.494-4.96.721a.469.469 0 00-.26.8l3.59 3.498-.848 4.94a.469.469 0 00.68.495L16 21.245l4.436 2.333a.469.469 0 00.68-.494l-.847-4.94 3.59-3.5a.469.469 0 00.118-.48zm-4.539 3.48a.469.469 0 00-.135.415l.729 4.247-3.814-2.005a.469.469 0 00-.436 0l-3.814 2.005.728-4.247a.469.469 0 00-.134-.415l-3.086-3.007 4.264-.62a.469.469 0 00.353-.257L16 9.896l1.907 3.864a.47.47 0 00.353.257l4.264.62-3.086 3.007z" fill="#086CF9"/><circle cx="16" cy="16" r="15.7" stroke="#C8C8C8" stroke-width=".6"/></svg>