<svg width="32" height="32" fill="none" xmlns="http://www.w3.org/2000/svg"><circle cx="16" cy="16" r="15.7" stroke="#C8C8C8" stroke-width=".6"/><g clip-path="url(#clip0_28_434)" fill="#086CF9"><path d="M16 16.02c-4.216 0-7.647 3.431-7.647 7.647a.333.333 0 00.665 0A6.99 6.99 0 0116 16.685a6.99 6.99 0 016.982 6.982.333.333 0 00.665 0c0-4.217-3.43-7.647-7.647-7.647zM16 8a3.661 3.661 0 00-3.657 3.657A3.662 3.662 0 0016 15.314a3.662 3.662 0 003.657-3.657A3.662 3.662 0 0016 8zm0 6.65a2.996 2.996 0 01-2.992-2.993A2.996 2.996 0 0116 8.665a2.996 2.996 0 012.992 2.992A2.996 2.996 0 0116 14.65z"/></g><defs><clipPath id="clip0_28_434"><path fill="#fff" transform="translate(8 8)" d="M0 0h16v16H0z"/></clipPath></defs></svg>